<?xml version="1.0" encoding="UTF-8"?>
<svg id="Layer_1" data-name="Layer 1" xmlns="http://www.w3.org/2000/svg" viewBox="0 0 253.92 253.83">
  <defs>
    <style>
      .cls-1 {
        fill: #39ba98;
      }

      .cls-2 {
        fill: #35bba0;
      }
    </style>
  </defs>
  <g>
    <path class="cls-1" d="M13.86,69.37C27.97,41.55,51.82,19.97,81.02,8.62c29.41-11.43,61.85-11.5,91.34-.2,31.65,12.12,56.69,35.85,70.49,66.8,13.8,30.96,14.73,65.43,2.6,97.09-1.58,4.13-3.39,8.22-5.39,12.15-14.11,27.82-37.96,49.39-67.16,60.74-29.41,11.43-61.85,11.5-91.33.21-31.65-12.12-56.68-35.85-70.49-66.8-13.81-30.96-14.73-65.44-2.61-97.09,1.59-4.13,3.4-8.22,5.39-12.15ZM237.19,183.01c1.94-3.83,3.71-7.81,5.26-11.85,11.82-30.85,10.92-64.46-2.54-94.62-13.45-30.17-37.85-53.3-68.7-65.11-28.75-11.01-60.36-10.95-89.02.19-28.46,11.06-51.71,32.09-65.47,59.2-1.94,3.82-3.71,7.81-5.25,11.85C-.35,113.52.55,147.12,14.01,177.3c13.45,30.17,37.85,53.29,68.7,65.11,28.74,11.01,60.36,10.94,89.02-.2,28.46-11.06,51.71-32.09,65.46-59.2Z"/>
    <g>
      <rect class="cls-2" x="41.52" y="191.92" width="25.36" height="4.15" transform="translate(-117.65 88.93) rotate(-42.95)"/>
      <rect class="cls-2" x="59.88" y="178.15" width="4.15" height="17.22" transform="translate(-110.71 92.4) rotate(-42.99)"/>
    </g>
    <g>
      <rect class="cls-2" x="55.36" y="205.18" width="22.04" height="4.15" transform="translate(-140.37 139.31) rotate(-54.05)"/>
      <path class="cls-2" d="M62.8,215.71l-3.35-2.44,5.81-8c3.1-4.27,9.09-5.22,13.36-2.12l-2.44,3.35c-2.42-1.75-5.82-1.21-7.57,1.21l-5.82,8Z"/>
    </g>
    <g>
      <rect class="cls-2" x="69.63" y="214.31" width="21.54" height="4.15" transform="translate(-148.75 188.53) rotate(-62.69)"/>
      <path class="cls-2" d="M85.17,201.7c.64-1.23,2.14-1.72,3.38-1.08,1.23.64,1.71,2.14,1.08,3.38-.64,1.23-2.15,1.71-3.38,1.08-1.23-.64-1.71-2.15-1.08-3.37Z"/>
    </g>
    <g>
      <path class="cls-2" d="M159.2,233.92c-5.6,1.97-11.76-.99-13.73-6.59-1.98-5.6.98-11.76,6.58-13.73,5.61-1.97,11.76.98,13.73,6.58,1.97,5.6-.99,11.76-6.59,13.73ZM153.43,217.51c-3.45,1.21-5.26,5-4.06,8.45,1.21,3.44,5,5.26,8.45,4.05,3.44-1.21,5.26-5,4.05-8.44-1.21-3.44-5-5.26-8.44-4.05Z"/>
      <rect class="cls-2" x="163.17" y="209.61" width="4.15" height="21.54" transform="translate(-63.6 67.07) rotate(-19.32)"/>
    </g>
    <g>
      <path class="cls-2" d="M207.85,203.93c-3.9,4.47-10.72,4.94-15.19,1.03-4.48-3.89-4.94-10.71-1.03-15.19,3.9-4.47,10.72-4.94,15.19-1.04,4.47,3.9,4.93,10.72,1.03,15.2ZM194.75,192.5c-2.4,2.75-2.11,6.93.64,9.34,2.75,2.4,6.94,2.11,9.34-.64,2.4-2.75,2.12-6.94-.63-9.34-2.75-2.4-6.94-2.11-9.34.64Z"/>
      <rect class="cls-2" x="204.37" y="178.4" width="4.15" height="21.54" transform="translate(-71.81 220.45) rotate(-48.91)"/>
    </g>
    <path class="cls-2" d="M194.52,215.95l-3.47,2.26-6.53-10.03c-1.63-2.51-4.99-3.22-7.5-1.59-2.5,1.63-3.22,5-1.59,7.5l6.53,10.04-3.48,2.25-6.52-10.02c-2.88-4.43-1.62-10.37,2.8-13.24,4.42-2.87,10.37-1.62,13.24,2.8l6.53,10.03Z"/>
    <path class="cls-2" d="M130.09,216.83c-2.02.09-3.85.79-5.35,1.92l-.22-5.52-4.14.18.55,13.38.49,11.96,4.14-.18-.49-11.96c-.12-2.98,2.21-5.51,5.2-5.64,2.99-.12,5.52,2.21,5.64,5.2l.49,11.96,4.14-.18-.49-11.96c-.21-5.27-4.68-9.39-9.95-9.17Z"/>
    <path class="cls-2" d="M89.7,232.74c-.79-.31-1.5-.78-2.12-1.41l-2.6-2.52,2.92-2.94,2.61,2.52c.41.41.96.64,1.54.64.58,0,1.12-.23,1.53-.64.41-.41.63-.96.63-1.53,0-.58-.23-1.13-.64-1.54l-2.18-2.16c-2.47-2.46-2.48-6.47-.02-8.94,1.19-1.2,2.77-1.85,4.46-1.86,1.69,0,3.27.65,4.47,1.85l1.62,1.62-2.93,2.93-1.63-1.62c-.41-.41-.96-.63-1.53-.63-.59,0-1.13.23-1.54.64-.41.41-.64.96-.63,1.54,0,.58.23,1.12.64,1.53l2.17,2.16c1.2,1.19,1.85,2.78,1.86,4.47,0,1.69-.65,3.28-1.85,4.47-1.19,1.2-2.78,1.85-4.46,1.86-.82,0-1.61-.15-2.35-.45Z"/>
    <path class="cls-2" d="M114.66,221l.66-4.09-4.43-.71.66-4.12-4.1-.66-2.92,18.14c-.3,1.84.14,3.7,1.24,5.23,1.09,1.52,2.72,2.52,4.58,2.82l1.59.26.66-4.1-1.59-.25c-.76-.12-1.42-.53-1.87-1.15-.45-.63-.63-1.39-.51-2.14l1.6-9.92,4.43.71Z"/>
    <g>
      <path class="cls-2" d="M37.36,93.21l-3.02-3.62,4.41-9.27,4.72.06.64-1.33-18.78-.25-.64,1.34,12.03,14.42.64-1.33ZM26.46,80.15l10.81.15-3.88,8.16-6.93-8.3Z"/>
      <path class="cls-2" d="M47.55,74.25c-1.16,1.63-2.77,2.74-4.21,2.9l-.15-1.33c1.06-.11,2.33-1.04,3.26-2.34,1.42-2.01,1.48-4.07.64-4.66-.71-.51-2.1-.05-3.3,1.11l-1.9,1.68c-1.56,1.46-3.47,1.85-4.73.95-1.57-1.12-1.53-3.78.09-6.07,1.05-1.48,2.56-2.45,3.94-2.54l.09,1.34c-.97.07-2.12.84-2.93,1.98-1.15,1.61-1.32,3.53-.4,4.19.71.5,1.96.15,3.04-.85l1.89-1.68c1.69-1.63,3.7-2.12,4.99-1.21,1.6,1.14,1.46,4.02-.33,6.54Z"/>
      <path class="cls-2" d="M58.69,60.09l-.88,1.01-4.95-4.33c-1.71-1.49-4.31-1.31-5.8.39-1.49,1.71-1.32,4.31.39,5.8l4.95,4.33-.88,1.01-13.15-11.5.89-1.01,5.5,4.81c-.21-1.51.22-3.09,1.29-4.32,1.98-2.26,5.43-2.5,7.7-.52l4.95,4.33Z"/>
      <g>
        <rect class="cls-2" x="52.12" y="47.07" width="5.26" height="1.35" transform="translate(-17.85 49.99) rotate(-42.86)"/>
        <path class="cls-2" d="M63.1,56.33c-.67.62-1.39.97-2.13,1.03-1.67.14-2.79-1.21-2.84-1.27l-8.58-9.24.99-.92,8.61,9.28s.76.9,1.73.81c.84-.07,1.71-.85,2.52-2.25l1.16.68c-.46.79-.94,1.42-1.45,1.89Z"/>
      </g>
      <g>
        <polygon class="cls-2" points="200.8 50.11 196.88 46.59 197.78 45.59 201.69 49.11 200.8 50.11"/>
        <path class="cls-2" d="M191.49,56.94c-.68-.61-1.09-1.29-1.21-2.03-.28-1.65.96-2.89,1.01-2.95l8.43-9.38,1,.9-8.46,9.41s-.83.85-.66,1.79c.15.83,1,1.63,2.47,2.31l-.57,1.22c-.82-.39-1.5-.81-2.01-1.28Z"/>
      </g>
      <g>
        <path class="cls-2" d="M69.96,50.58c-2.85,2.08-6.85,1.46-8.93-1.38-2.08-2.85-1.46-6.85,1.38-8.93,2.84-2.08,6.85-1.46,8.93,1.38,2.08,2.84,1.46,6.84-1.38,8.93ZM63.2,41.35c-2.25,1.65-2.73,4.81-1.09,7.06,1.65,2.24,4.8,2.73,7.05,1.09,2.24-1.64,2.74-4.8,1.09-7.05-1.64-2.24-4.81-2.74-7.05-1.09Z"/>
        <rect class="cls-2" x="70.31" y="35.79" width="1.35" height="12.44" transform="translate(-11.12 49.96) rotate(-36.15)"/>
      </g>
      <g>
        <path class="cls-2" d="M107.53,33.65c-3.46.69-6.83-1.57-7.51-5.02-.68-3.46,1.57-6.83,5.02-7.51,3.46-.69,6.83,1.57,7.51,5.03.69,3.45-1.57,6.82-5.02,7.51ZM105.31,22.43c-2.73.54-4.51,3.2-3.97,5.93.54,2.73,3.2,4.51,5.93,3.96,2.73-.54,4.51-3.19,3.97-5.93-.54-2.73-3.2-4.51-5.93-3.97Z"/>
        <rect class="cls-2" x="111.4" y="20.1" width="1.35" height="12.44" transform="translate(-2.97 22.15) rotate(-11.14)"/>
      </g>
      <g>
        <path class="cls-2" d="M165.02,39.58c-3.22-1.44-4.66-5.22-3.22-8.44,1.44-3.22,5.22-4.66,8.44-3.22,3.22,1.44,4.66,5.23,3.22,8.44-1.44,3.21-5.23,4.66-8.44,3.22ZM169.69,29.14c-2.54-1.14-5.53.01-6.67,2.55-1.13,2.54,0,5.53,2.55,6.66,2.54,1.14,5.53,0,6.67-2.54,1.13-2.54,0-5.54-2.54-6.67Z"/>
        <rect class="cls-2" x="166.75" y="35.55" width="12.44" height="1.35" transform="translate(69.24 179.3) rotate(-65.89)"/>
      </g>
      <path class="cls-2" d="M86.75,40.2l-1.18.64-3.12-5.79c-1.07-2-3.57-2.74-5.57-1.67-2,1.07-2.74,3.58-1.67,5.57l3.12,5.79-1.18.64-5.89-10.91,1.18-.64,1.07,1.97c.34-1.49,1.29-2.82,2.73-3.6,2.65-1.43,5.96-.44,7.39,2.21l3.12,5.79Z"/>
      <path class="cls-2" d="M94.17,23.91l.9,2.31c-1.64-.98-3.69-1.22-5.6-.48-3.28,1.29-4.91,5-3.63,8.28,1.28,3.29,5,4.91,8.28,3.62,1.92-.75,3.25-2.34,3.79-4.17l1.78,4.55c1.01,2.59-.27,5.52-2.86,6.54-2.59,1.01-5.52-.27-6.54-2.86l-1.25.49c1.28,3.28,5,4.9,8.28,3.62,3.28-1.29,4.91-4.99,3.62-8.27,0,0-2.96-7.58-3.17-8.12,0-.01-.02-.04-.02-.05-.29-.73-2.01-5.13-2.32-5.95l-1.25.49ZM93.64,36.4c-2.59,1.01-5.53-.27-6.54-2.86-1.01-2.59.27-5.52,2.86-6.54,2.59-1.01,5.52.27,6.54,2.86,1.01,2.59-.27,5.52-2.86,6.54Z"/>
      <polygon class="cls-2" points="132.23 14.29 126.89 23.5 121.58 14.27 120.03 14.27 126.22 25.02 126.21 31.45 127.55 31.45 127.56 25.03 133.78 14.29 132.23 14.29"/>
      <path class="cls-2" d="M138.8,32.39c-3.52.02-6.41-2.82-6.43-6.35-.02-3.53,2.83-6.41,6.35-6.43,3.52-.02,6.41,2.82,6.43,6.35.02,3.52-2.82,6.41-6.34,6.43ZM138.72,20.95c-2.78.02-5.03,2.3-5.01,5.08.02,2.78,2.29,5.03,5.08,5.01,2.78-.02,5.03-2.29,5.01-5.08-.02-2.78-2.3-5.03-5.07-5.02Z"/>
      <path class="cls-2" d="M215.5,91.76c-1.72-3.08-.61-6.98,2.46-8.7,3.07-1.71,6.98-.61,8.69,2.47,1.72,3.07.61,6.98-2.47,8.69-3.08,1.72-6.98.61-8.69-2.46ZM225.48,86.18c-1.36-2.43-4.44-3.3-6.87-1.94-2.43,1.35-3.3,4.43-1.95,6.86,1.35,2.43,4.43,3.3,6.86,1.94,2.43-1.35,3.3-4.44,1.95-6.87Z"/>
      <path class="cls-2" d="M159.99,23.83l-.65,2.4c-.74-1.76-2.24-3.18-4.22-3.71-3.4-.92-6.92,1.11-7.84,4.51-.92,3.4,1.11,6.91,4.51,7.83,1.99.54,4,.05,5.52-1.11l-1.27,4.72c-.72,2.68-3.5,4.29-6.18,3.56-2.68-.72-4.28-3.5-3.56-6.19l-1.3-.35c-.92,3.4,1.11,6.92,4.51,7.83,3.4.91,6.91-1.11,7.83-4.51,0,0,2.12-7.85,2.27-8.41,0-.01.01-.04.01-.05.2-.76,1.43-5.33,1.66-6.17l-1.3-.35ZM152.14,33.56c-2.69-.72-4.28-3.49-3.56-6.18.72-2.68,3.5-4.29,6.18-3.56,2.69.72,4.28,3.5,3.56,6.18-.72,2.69-3.5,4.28-6.18,3.56Z"/>
      <path class="cls-2" d="M180.01,47.61c-2.02-2.12-3.16-4.73-2.99-6.81l1.34.11c-.14,1.69.89,3.96,2.63,5.78,2.49,2.61,5.79,3.67,7.21,2.32,1.1-1.05.84-3.38-.64-5.65l-1.94-3.29c-1.63-2.6-1.68-5.37-.12-6.85,1.97-1.88,5.7-1.06,8.49,1.86,1.82,1.91,2.79,4.32,2.54,6.29l-1.33-.16c.19-1.55-.66-3.59-2.19-5.19-2.19-2.3-5.2-3.13-6.58-1.81-1.07,1.02-.93,3.15.34,5.18l1.94,3.28c1.85,2.86,2.02,5.81.42,7.33-2.02,1.92-6.03.89-9.12-2.36Z"/>
      <path class="cls-2" d="M203.88,51.11l.89,1.01-5.29,4.64c-1.7,1.49-1.87,4.1-.38,5.8,1.5,1.7,4.1,1.87,5.8.38l5.28-4.64.89,1.01-9.32,8.18-.89-1.01,1.34-1.18c-1.52,0-3.04-.62-4.12-1.85-1.98-2.26-1.76-5.71.5-7.7l5.29-4.64Z"/>
      <g>
        <path class="cls-2" d="M206.31,74.14c-1.94-2.94-1.12-6.91,1.82-8.85,2.94-1.94,6.91-1.12,8.85,1.82,1.94,2.94,1.12,6.91-1.82,8.85-2.94,1.94-6.91,1.12-8.85-1.82ZM215.86,67.85c-1.53-2.32-4.67-2.97-6.99-1.44-2.33,1.53-2.97,4.66-1.44,6.99,1.53,2.32,4.66,2.97,6.99,1.44,2.32-1.53,2.97-4.66,1.44-6.99Z"/>
        <rect class="cls-2" x="208.3" y="73.94" width="15.97" height="1.34" transform="translate(-5.33 131.49) rotate(-33.43)"/>
      </g>
      <g>
        <polygon class="cls-2" points="211.84 83.21 211.21 82.03 222.18 76.24 222.81 77.43 211.84 83.21"/>
        <path class="cls-2" d="M224.28,74.63c.54-.28,1.21-.08,1.5.46.29.54.08,1.21-.46,1.5-.55.29-1.22.08-1.5-.46-.29-.55-.08-1.22.46-1.5Z"/>
      </g>
    </g>
  </g>
  <path class="cls-2" d="M178.86,133.9c3.59,2.07,6.63,4.74,9.11,7.8,3.71-2.4,6.84-5.48,9.15-9.05-5.59-8.68-16.03-14.52-27.99-14.52-7.55,0-14.5,2.33-20,6.24-1.74,1.15-3.83,1.82-6.07,1.82-6.11,0-11.05-4.95-11.05-11.05,0-4.16,2.3-7.78,5.69-9.66,6.3-2.78,11.96-7.69,15.82-14.38,5.98-10.36,6.14-22.32,1.42-31.5-4.24.21-8.47,1.38-12.41,3.39,1.42,3.68,2.21,7.64,2.21,11.79,0,8.35-3.15,15.98-8.36,21.9,2.82-5.06,4.47-11.08,4.47-17.56,0-11.97-5.58-22.4-13.88-27.99-8.29,5.59-13.88,16.03-13.88,27.99,0,6.48,1.65,12.51,4.47,17.56-5.21-5.92-8.36-13.55-8.36-21.9,0-4.15.79-8.11,2.21-11.79-3.94-2.01-8.17-3.19-12.41-3.39-4.72,9.18-4.56,21.14,1.42,31.5,3.8,6.57,9.32,11.43,15.48,14.24-.03-.01-.06-.02-.09-.04,1.87.94,3.49,2.4,4.62,4.35,3.05,5.29,1.24,12.05-4.04,15.1-3.6,2.08-7.88,1.9-11.21-.1-5.56-4.06-12.64-6.51-20.36-6.51-11.96,0-22.4,5.84-27.99,14.52,2.3,3.57,5.43,6.64,9.14,9.05,2.47-3.07,5.52-5.73,9.11-7.81,7.23-4.17,15.42-5.26,23.15-3.71-5.79.09-11.83,1.67-17.45,4.91-10.36,5.98-16.61,16.04-17.3,26.02,8.99,4.39,20.82,4.01,31.19-1.97,5.61-3.24,10.01-7.68,12.97-12.66-2.52,7.47-7.56,14.02-14.79,18.19-3.59,2.07-7.42,3.38-11.31,3.98.23,4.41,1.32,8.67,3.26,12.44,10.31-.5,20.59-6.62,26.57-16.98,3.79-6.57,5.24-13.78,4.59-20.51,0,.03,0,.06,0,.08-.13-2.09.33-4.23,1.46-6.18,3.05-5.29,9.81-7.1,15.1-4.05,3.6,2.08,5.59,5.88,5.53,9.76-.74,6.85.68,14.2,4.55,20.89,5.98,10.36,16.26,16.48,26.57,16.98,1.94-3.78,3.04-8.03,3.26-12.44-3.89-.61-7.72-1.91-11.31-3.98-7.23-4.18-12.27-10.72-14.79-18.19,2.97,4.97,7.36,9.41,12.98,12.65,10.36,5.98,22.19,6.37,31.18,1.98-.69-9.98-6.94-20.04-17.3-26.02-5.61-3.24-11.66-4.82-17.45-4.91,7.73-1.55,15.92-.47,23.15,3.71Z"/>
</svg>