<?xml version="1.0" encoding="UTF-8"?>
<svg id="Layer_1" data-name="Layer 1" xmlns="http://www.w3.org/2000/svg" viewBox="0 0 463.45 130.35">
  <defs>
    <style>
      .cls-1 {
        fill: #35bba0;
      }
    </style>
  </defs>
  <g>
    <path class="cls-1" d="M200.27,112.66c-2.19,0-4.2-.73-5.26-1.92l1.1-.98c.77.87,2.41,1.42,4.16,1.42,2.69,0,4.57-1.25,4.57-2.38,0-.96-1.29-1.91-3.08-2.24l-2.71-.63c-2.29-.46-3.85-1.92-3.85-3.61,0-2.12,2.4-3.77,5.47-3.77,1.98,0,3.81.73,4.77,1.9l-1.14.93c-.67-.82-2.09-1.36-3.62-1.36-2.17,0-3.99,1.06-3.99,2.3,0,.95,1.11,1.84,2.69,2.17l2.7.62c2.53.47,4.25,1.96,4.25,3.69,0,2.16-2.65,3.85-6.04,3.85Z"/>
    <path class="cls-1" d="M381.58,113.16c-3.2,0-6.14-1.06-7.66-2.78l1.1-.97c1.23,1.38,3.81,2.28,6.56,2.28,3.95,0,7.29-1.81,7.29-3.97,0-1.67-2.04-3.21-4.96-3.76l-4.08-.95c-3.3-.68-5.52-2.72-5.52-5.08,0-2.99,3.46-5.33,7.88-5.33,2.89,0,5.53,1.05,6.91,2.73l-1.14.94c-1.09-1.33-3.35-2.19-5.77-2.19-3.48,0-6.41,1.76-6.41,3.85,0,1.62,1.8,3.12,4.37,3.64l4.06.94c3.66.69,6.13,2.78,6.13,5.21,0,3.05-3.85,5.45-8.76,5.45Z"/>
    <path class="cls-1" d="M221.01,112.27h-1.47v-7.2c0-2.48-2.02-4.5-4.5-4.5s-4.5,2.02-4.5,4.5v7.2h-1.47v-19.13h1.47v8.01c1.09-1.26,2.71-2.05,4.5-2.05,3.29,0,5.97,2.68,5.97,5.97v7.2Z"/>
    <path class="cls-1" d="M261.89,112.27h-1.47v-7.2c0-2.48-2.02-4.5-4.5-4.5s-4.5,2.02-4.5,4.5v7.2h-1.47v-13.58h1.47v2.46c1.1-1.26,2.71-2.05,4.5-2.05,3.29,0,5.97,2.68,5.97,5.97v7.2Z"/>
    <path class="cls-1" d="M402.07,98.69h1.47v7.7c0,2.48,2.02,4.5,4.5,4.5s4.5-2.02,4.5-4.5v-7.7h1.47v13.58h-1.47v-1.96c-1.1,1.26-2.71,2.05-4.5,2.05-3.29,0-5.97-2.68-5.97-5.97v-7.7Z"/>
    <g>
      <rect class="cls-1" x="224.67" y="98.69" width="5.76" height="1.47"/>
      <path class="cls-1" d="M227.86,112.54c-1,0-1.83-.25-2.48-.77-1.44-1.13-1.34-3.05-1.33-3.14v-13.81s1.47,0,1.47,0v13.86c0,.05-.06,1.3.78,1.94.73.57,2.01.59,3.7.07l.43,1.41c-.95.29-1.81.44-2.57.44Z"/>
    </g>
    <g>
      <rect class="cls-1" x="393.8" y="98.69" width="5.76" height="1.47"/>
      <path class="cls-1" d="M396.98,112.54c-1,0-1.83-.25-2.48-.77-1.44-1.13-1.34-3.05-1.33-3.14v-13.81s1.47,0,1.47,0v13.86c0,.05-.06,1.3.78,1.94.73.57,2.01.59,3.7.07l.43,1.41c-.95.29-1.81.44-2.57.44Z"/>
    </g>
    <g>
      <path class="cls-1" d="M239.43,112.41c-3.86,0-7-3.14-7-7s3.14-7,7-7,7,3.14,7,7-3.14,7-7,7ZM239.43,99.89c-3.05,0-5.53,2.48-5.53,5.53s2.48,5.52,5.53,5.52,5.53-2.47,5.53-5.52-2.48-5.53-5.53-5.53Z"/>
      <rect class="cls-1" x="245.14" y="98.69" width="1.47" height="13.62"/>
    </g>
    <g>
      <path class="cls-1" d="M287.94,112.41c-3.86,0-7-3.14-7-7s3.14-7,7-7,7,3.14,7,7-3.14,7-7,7ZM287.94,99.89c-3.05,0-5.53,2.48-5.53,5.53s2.48,5.52,5.53,5.52,5.53-2.47,5.53-5.52-2.48-5.53-5.53-5.53Z"/>
      <rect class="cls-1" x="293.65" y="98.69" width="1.47" height="13.62"/>
    </g>
    <path class="cls-1" d="M445.15,112.41c-3.86,0-7-3.14-7-7s3.14-7,7-7,6.99,3.14,6.99,7-3.14,7-6.99,7ZM445.15,99.89c-3.05,0-5.53,2.48-5.53,5.53s2.48,5.52,5.53,5.52,5.52-2.47,5.52-5.52-2.48-5.53-5.52-5.53Z"/>
    <g>
      <path class="cls-1" d="M357.05,112.41c-3.86,0-7-3.14-7-7s3.14-7,7-7,7,3.14,7,7-3.14,7-7,7ZM357.05,99.89c-3.04,0-5.52,2.48-5.52,5.53s2.48,5.52,5.52,5.52,5.53-2.47,5.53-5.52-2.48-5.53-5.53-5.53Z"/>
      <rect class="cls-1" x="362.75" y="98.69" width="1.48" height="13.62"/>
    </g>
    <g>
      <path class="cls-1" d="M423.43,112.41c-3.86,0-7-3.14-7-7s3.14-7,7-7,7,3.14,7,7-3.14,7-7,7ZM423.43,99.89c-3.04,0-5.53,2.48-5.53,5.53s2.48,5.52,5.53,5.52,5.53-2.47,5.53-5.52-2.48-5.53-5.53-5.53Z"/>
      <rect class="cls-1" x="429.15" y="94.82" width="1.47" height="17.5"/>
    </g>
    <path class="cls-1" d="M324.74,112.41c-3.86,0-7-3.14-7-7s3.14-7,7-7,7,3.14,7,7-3.14,7-7,7ZM324.74,99.89c-3.05,0-5.52,2.48-5.52,5.53s2.48,5.52,5.52,5.52,5.52-2.47,5.52-5.52-2.48-5.53-5.52-5.53Z"/>
    <path class="cls-1" d="M176.09,112.23l2.16-4.7h11.25l2.16,4.7h1.62l-8.59-18.69h-1.62l-8.59,18.69h1.62ZM183.87,95.3l4.95,10.76h-9.89l4.95-10.76Z"/>
    <polygon class="cls-1" points="316.95 93.51 311.12 103.61 305.28 93.51 303.59 93.51 310.38 105.27 310.38 112.32 311.85 112.32 311.85 105.27 318.65 93.51 316.95 93.51"/>
    <path class="cls-1" d="M277.02,98.41v2.72c-1.28-1.65-3.28-2.72-5.52-2.72-3.86,0-7,3.14-7,7s3.14,7,7,7c2.26,0,4.24-1.09,5.52-2.75v5.36c0,3.04-2.48,5.53-5.52,5.53s-5.53-2.48-5.53-5.53h-1.48c0,3.86,3.14,7,7,7s7-3.14,7-7v-16.6h-1.47ZM271.49,110.94c-3.05,0-5.53-2.47-5.53-5.52s2.48-5.53,5.53-5.53,5.52,2.48,5.52,5.53-2.48,5.52-5.52,5.52Z"/>
    <path class="cls-1" d="M345.92,98.41v2.72c-1.28-1.65-3.28-2.72-5.52-2.72-3.86,0-7,3.14-7,7s3.14,7,7,7c2.26,0,4.24-1.09,5.52-2.75v5.36c0,3.04-2.48,5.53-5.52,5.53s-5.53-2.48-5.53-5.53h-1.48c0,3.86,3.14,7,7,7s7-3.14,7-7v-16.6h-1.47ZM340.4,110.94c-3.05,0-5.53-2.47-5.53-5.52s2.48-5.53,5.53-5.53,5.52,2.48,5.52,5.53-2.48,5.52-5.52,5.52Z"/>
    <g>
      <rect class="cls-1" x="433.96" y="98.69" width="1.47" height="13.58"/>
      <circle class="cls-1" cx="434.69" cy="95.83" r="1.22"/>
    </g>
  </g>
  <path class="cls-1" d="M367.32,40.63v6.81c-3.62-4.16-8.94-6.81-14.88-6.81-10.88,0-19.73,8.85-19.73,19.73s8.85,19.73,19.73,19.73c5.94,0,11.26-2.65,14.88-6.81v6.81h7.6v-39.47h-7.6ZM352.44,72.49c-6.69,0-12.13-5.45-12.13-12.13s5.44-12.13,12.13-12.13,12.13,5.44,12.13,12.13-5.44,12.13-12.13,12.13Z"/>
  <polygon class="cls-1" points="195.62 33.62 164.07 33.62 164.07 41.22 176.05 41.22 176.05 80.09 183.65 80.09 183.65 41.22 195.62 41.22 195.62 33.62"/>
  <path class="cls-1" d="M455.85,40.63v5.25c-3.52-3.25-8.21-5.25-13.36-5.25-10.88,0-19.73,8.85-19.73,19.73s8.85,19.73,19.73,19.73c5.16,0,9.84-2,13.36-5.25v5.25h7.6v-39.47h-7.6ZM442.49,72.49c-6.69,0-12.13-5.45-12.13-12.13s5.44-12.13,12.13-12.13,12.13,5.44,12.13,12.13-5.44,12.13-12.13,12.13Z"/>
  <path class="cls-1" d="M417.51,80.09h-7.6v-21.93c0-5.48-4.46-9.93-9.94-9.93s-9.94,4.45-9.94,9.93v21.93h-7.6v-21.93c0-9.67,7.87-17.54,17.54-17.54s17.54,7.87,17.54,17.54v21.93Z"/>
  <path class="cls-1" d="M308.99,40.63c-3.68,0-7.11,1.15-9.93,3.1v-10.11h-7.6v46.47h7.6v-21.93c0-5.48,4.45-9.93,9.93-9.93s9.94,4.45,9.94,9.93v21.93h7.6v-21.93c0-9.67-7.87-17.54-17.54-17.54Z"/>
  <path class="cls-1" d="M209.51,43.73v-4.03h-7.6v40.39h7.6v-21.93c0-5.48,4.46-9.93,9.94-9.93v-7.6c-3.69,0-7.11,1.15-9.94,3.1Z"/>
  <path class="cls-1" d="M250.04,79.87c-1.55,0-3.1-.31-4.57-.95l-6.15-2.53,2.99-6.98,6.15,2.53c.98.42,2.06.43,3.05.04.99-.4,1.76-1.15,2.18-2.13.42-.98.43-2.06.04-3.05-.39-.98-1.15-1.76-2.12-2.18l-5.16-2.2c-5.87-2.52-8.6-9.34-6.08-15.21,1.22-2.84,3.47-5.04,6.34-6.19,2.87-1.15,6.02-1.11,8.86.11l3.86,1.66-2.99,6.99-3.86-1.66c-.97-.42-2.06-.43-3.04-.04-.99.4-1.76,1.15-2.18,2.13-.42.98-.43,2.06-.04,3.04.4.99,1.15,1.76,2.13,2.18l5.16,2.2c2.85,1.22,5.05,3.47,6.19,6.35,1.15,2.87,1.11,6.02-.11,8.86-1.22,2.84-3.47,5.04-6.34,6.19-1.39.56-2.85.83-4.3.83Z"/>
  <g>
    <rect class="cls-1" x="225.1" y="40.63" width="7.6" height="39.47"/>
    <path class="cls-1" d="M228.9,37.03c2.54,0,4.59-2.06,4.59-4.59s-2.06-4.59-4.59-4.59-4.59,2.06-4.59,4.59,2.06,4.59,4.59,4.59Z"/>
  </g>
  <path class="cls-1" d="M283.64,48.81v-7.6h-8.22v-7.64h-7.6v33.66c0,3.44,1.34,6.67,3.77,9.1,2.43,2.43,5.66,3.77,9.1,3.77h2.95v-7.6h-2.95c-1.41,0-2.73-.55-3.72-1.54-.99-1-1.54-2.32-1.54-3.73v-18.42h8.22Z"/>
  <path class="cls-1" d="M122.41,83.01c3.6,2.08,6.65,4.75,9.13,7.83,3.72-2.41,6.86-5.49,9.17-9.07-5.61-8.7-16.08-14.56-28.07-14.56-7.58,0-14.54,2.34-20.05,6.25-1.75,1.15-3.84,1.83-6.09,1.83-6.12,0-11.08-4.96-11.08-11.08,0-4.17,2.3-7.8,5.71-9.69,6.32-2.79,11.99-7.71,15.86-14.42,6-10.39,6.16-22.39,1.43-31.59-4.25.21-8.5,1.38-12.44,3.4,1.42,3.69,2.21,7.67,2.21,11.83,0,8.37-3.16,16.03-8.38,21.97,2.83-5.07,4.48-11.12,4.48-17.62,0-12-5.6-22.47-13.92-28.08-8.32,5.61-13.92,16.08-13.92,28.08,0,6.5,1.66,12.54,4.49,17.62-5.22-5.94-8.39-13.59-8.39-21.97,0-4.16.79-8.14,2.21-11.82-3.95-2.02-8.19-3.2-12.44-3.4-4.73,9.21-4.57,21.2,1.42,31.59,3.81,6.59,9.35,11.46,15.53,14.28-.03-.01-.06-.02-.09-.04,1.87.94,3.5,2.41,4.63,4.36,3.06,5.3,1.24,12.08-4.06,15.14-3.61,2.09-7.91,1.9-11.25-.1-5.57-4.07-12.67-6.53-20.42-6.53-12,0-22.47,5.86-28.07,14.56,2.31,3.58,5.45,6.66,9.17,9.07,2.48-3.08,5.53-5.75,9.13-7.83,7.25-4.19,15.46-5.27,23.22-3.72-5.81.09-11.87,1.68-17.5,4.92-10.39,6-16.66,16.08-17.35,26.09,9.02,4.4,20.88,4.02,31.28-1.98,5.63-3.25,10.03-7.71,13.01-12.69-2.53,7.49-7.58,14.06-14.83,18.25-3.6,2.08-7.44,3.38-11.35,3.99.23,4.43,1.33,8.69,3.27,12.48,10.34-.5,20.65-6.64,26.65-17.03,3.8-6.59,5.25-13.82,4.6-20.57,0,.03,0,.06,0,.08-.13-2.09.34-4.24,1.46-6.2,3.06-5.3,9.84-7.12,15.14-4.06,3.61,2.09,5.6,5.89,5.54,9.79-.74,6.87.68,14.24,4.56,20.95,6,10.39,16.3,16.53,26.64,17.03,1.94-3.79,3.05-8.05,3.27-12.48-3.9-.61-7.75-1.91-11.35-3.99-7.25-4.19-12.3-10.75-14.83-18.25,2.98,4.99,7.38,9.44,13.01,12.69,10.39,6,22.25,6.38,31.27,1.98-.7-10.01-6.96-20.09-17.35-26.09-5.63-3.25-11.69-4.84-17.5-4.92,7.75-1.56,15.96-.47,23.22,3.72Z"/>
</svg>